<svg width="36" height="37" viewBox="0 0 36 37" fill="none" xmlns="http://www.w3.org/2000/svg">
<path fill-rule="evenodd" clip-rule="evenodd" d="M28.4998 6.5C30.9852 6.5 32.9998 8.51472 32.9998 11V26C32.9998 28.4853 30.9852 30.5 28.4998 30.5H7.49991C5.01462 30.5 2.99991 28.4853 2.99991 26V11C2.99991 8.51472 5.01462 6.5 7.49991 6.5H28.4998ZM29.9998 14.9372H19.5C18.6717 14.9372 17.7663 14.3076 17.478 13.531L15.9813 9.5H7.49991C6.67147 9.5 5.99991 10.1716 5.99991 11V26C5.99991 26.8284 6.67147 27.5 7.49991 27.5H28.4998C29.3283 27.5 29.9998 26.8284 29.9998 26V14.9372Z" fill="black" fill-opacity="0.5"/>
</svg>
