<svg xmlns="http://www.w3.org/2000/svg" viewBox="0 0 512 512">
  <path d="m 256.46865,118.37398 c -25.79306,-0.32569 -49.32604,4.74448 -71.12728,12.97892 -13.68619,5.16936 -25.33666,11.03594 -34.60969,16.34649 -10.63106,5.22533 -18.09634,11.26862 -21.69396,14.31002 -16.64755,14.6741 -16.85823,47.39319 5.15851,59.42414 7.33998,4.03266 17.15773,5.76288 29.67315,3.74294 3.54654,-0.94063 6.19891,-2.06255 8.5334,-3.20624 0.58332,-0.28442 1.14229,-0.56613 1.66692,-0.85196 3.6187,-1.97971 6.08225,-3.93326 8.15548,-5.11334 57.37356,-35.80848 103.57984,-27.35448 149.79648,-0.29373 2.29318,1.34356 4.58658,2.73734 6.88122,4.16931 4.20401,2.62214 8.41322,5.3914 12.63499,8.28078 9.52299,6.52021 19.12519,13.69397 28.87796,21.25361 7.89208,6.11612 15.89689,12.49516 24.05329,19.03075 0.60021,0.48094 1.18468,0.94416 1.78662,1.42671 -0.0291,-0.0277 -0.058,-0.0544 -0.0869,-0.0821 0.0513,0.0412 0.0996,0.0783 0.15091,0.11953 31.77476,24.37797 71.32217,20.39291 100.99523,-6.0825 C 403.06054,155.27755 322.38426,119.20631 256.46865,118.37398 Z m 0.67138,98.92831 a 44.814316,44.814316 0 0 0 -44.81434,44.81434 44.814316,44.814316 0 0 0 44.81434,44.81433 44.814316,44.814316 0 0 0 44.81434,-44.81433 44.814316,44.814316 0 0 0 -44.81434,-44.81434 z m -194.131446,24.051 C 43.209718,240.96833 23.394253,248.74453 6.7031713,263.63694 151.75268,414.66248 251.16122,425.38919 328.67668,396.11118 c 13.68599,-5.16926 25.33647,-11.03598 34.60944,-16.34648 10.63125,-5.22537 18.0968,-11.26884 21.69445,-14.31027 16.64757,-14.6741 16.858,-47.39294 -5.15875,-59.42389 -7.33997,-4.03264 -17.15773,-5.76288 -29.67314,-3.74294 -3.54707,0.94078 -6.19973,2.06288 -8.53441,3.20676 -0.58258,0.28407 -1.14088,0.56545 -1.66489,0.85095 -3.61926,1.97988 -6.08285,3.93341 -8.15625,5.11361 -57.37188,35.80741 -103.5774,27.35511 -149.79268,0.29624 -2.28933,-1.34125 -4.57903,-2.73256 -6.86979,-4.16195 -4.21253,-2.62712 -8.43026,-5.40156 -12.6606,-8.29702 -9.52357,-6.521 -19.12633,-13.69625 -28.87978,-21.25667 -7.88618,-6.11173 -15.88512,-12.48572 -24.03526,-19.01627 -0.60225,-0.48257 -1.18873,-0.94735 -1.79272,-1.43153 0.0289,0.0277 0.058,0.0544 0.0869,0.0822 -0.0513,-0.0411 -0.0996,-0.0783 -0.1509,-0.1194 C 93.796849,246.8891 78.407635,241.65274 63.008516,241.35332 Z"/>
</svg>