<svg width="86" height="86" viewBox="0 0 86 86" fill="none" xmlns="http://www.w3.org/2000/svg">
<g clip-path="url(#clip0_178_16)">
<path d="M47.4832 67.95C47.4832 69.1167 47.6499 70.0333 47.9832 70.7C48.3499 71.3333 48.9999 71.7 49.9332 71.8L53.8832 72.2C54.8499 72.3 55.5499 72.6167 55.9832 73.15C56.4499 73.65 56.6832 74.3167 56.6832 75.15C56.6832 77.05 55.6665 78 53.6332 78H31.6832C30.7165 78 29.9665 77.7667 29.4332 77.3C28.8999 76.8 28.6332 76.1 28.6332 75.2C28.6332 74.4 28.8332 73.7667 29.2332 73.3C29.6332 72.8 30.2332 72.4 31.0332 72.1L32.5832 71.75C33.3832 71.5167 33.9832 71.1 34.3832 70.5C34.8165 69.9 35.0332 69 35.0332 67.8V44.05C35.0332 43.1833 34.8499 42.55 34.4832 42.15C34.1165 41.7167 33.3999 41.2833 32.3332 40.85L30.7832 40.25C29.6832 39.75 28.8999 39.2333 28.4332 38.7C27.9665 38.1333 27.7332 37.4667 27.7332 36.7C27.7332 35.9333 27.9832 35.3167 28.4832 34.85C28.9832 34.35 29.6999 34.1 30.6332 34.1H38.4832L35.1332 36.4V34.6C35.1332 33.4667 34.8665 32.4 34.3332 31.4C33.8332 30.3667 33.2499 29.3 32.5832 28.2C31.9165 27.0667 31.3165 25.8 30.7832 24.4C30.2832 23 30.0332 21.35 30.0332 19.45C30.0332 15.6833 31.3832 12.5833 34.0832 10.15C36.8165 7.68333 40.7165 6.44999 45.7832 6.44999C48.8499 6.44999 51.4332 6.96666 53.5332 8C55.6332 8.99999 57.2165 10.3333 58.2832 12C59.3832 13.6333 59.9332 15.4167 59.9332 17.35C59.9332 19.3167 59.4332 20.8167 58.4332 21.85C57.4332 22.8833 56.1499 23.4 54.5832 23.4C52.8165 23.4 51.4332 22.85 50.4332 21.75C49.4332 20.65 48.9332 19.1333 48.9332 17.2V15.55C48.9332 14.2167 48.5999 13.1833 47.9332 12.45C47.2665 11.7167 46.2499 11.35 44.8832 11.35C43.2165 11.35 41.9499 11.8833 41.0832 12.95C40.2165 14.0167 39.7832 15.4667 39.7832 17.3C39.7832 18.4667 39.9999 19.6167 40.4332 20.75C40.8999 21.85 41.4665 22.95 42.1332 24.05C42.7999 25.1167 43.4665 26.2167 44.1332 27.35C44.8332 28.45 45.3999 29.5667 45.8332 30.7C46.2999 31.8333 46.5332 33.0167 46.5332 34.25V36.75L44.5332 34.1H55.0332C56.0665 34.1 56.8499 34.3167 57.3832 34.75C57.9165 35.1833 58.1832 35.8 58.1832 36.6C58.1832 37.8 57.6832 38.8 56.6832 39.6C55.6832 40.3667 54.0832 40.75 51.8832 40.75H47.4832V67.95Z" fill="black"/>
</g>
<defs>
<clipPath id="clip0_178_16">
<rect width="86" height="86" fill="white"/>
</clipPath>
</defs>
</svg>
